<svg xmlns="http://www.w3.org/2000/svg" xmlns:xlink="http://www.w3.org/1999/xlink" viewBox="0 0 713.57 390.05"><defs><style>.cls-1{fill:none;}.cls-2{isolation:isolate;}.cls-3{fill:#3a5a40;opacity:0.79;}.cls-17,.cls-19,.cls-20,.cls-26,.cls-34,.cls-4,.cls-5,.cls-9{fill:#f3b2a7;}.cls-10,.cls-13,.cls-15,.cls-16,.cls-17,.cls-19,.cls-20,.cls-22,.cls-24,.cls-25,.cls-26,.cls-28,.cls-29,.cls-30,.cls-32,.cls-34,.cls-5,.cls-8,.cls-9{mix-blend-mode:multiply;}.cls-5{opacity:0.24;}.cls-6{fill:#fff9e2;}.cls-7,.cls-8{fill:#221e1f;}.cls-9{opacity:0.64;}.cls-11,.cls-15{fill:#f9e4b9;}.cls-12,.cls-13{fill:#006e58;}.cls-13{opacity:0.65;}.cls-14,.cls-16,.cls-29,.cls-30{fill:#024386;}.cls-16{opacity:0.55;}.cls-17{opacity:0.33;}.cls-18,.cls-24{fill:#fa9900;}.cls-19{opacity:0.74;}.cls-20{opacity:0.27;}.cls-21,.cls-22,.cls-25{fill:#667ea2;}.cls-22{opacity:0.09;}.cls-23{clip-path:url(#clip-path);}.cls-25{opacity:0.42;}.cls-26{opacity:0.58;}.cls-27,.cls-28{fill:#a1b84e;}.cls-29{opacity:0.1;}.cls-30{opacity:0.36;}.cls-31,.cls-32{fill:#bd262b;}.cls-33{fill:#ea9883;}.cls-34{opacity:0.69;}</style><clipPath id="clip-path" transform="translate(-18.3 -53.25)"><path class="cls-1" d="M343.75,209.19s9.09,7.17,25.47,3.57,17.13-7.25,17.13-7.25l14,4.13,8.79,16.3s6.59,14,6.59,15.18-3.6,19.58-3.6,19.58L418,325s-10.29,14-37.11,17.57-43.51-6.79-43.51-6.79V220l-1.68-10Z"/></clipPath></defs><g class="cls-2"><g id="OBJECTS"><path class="cls-3" d="M178.9,441.13c34.53,2.74,70.52-.58,106.16-1.08,91.34-1.27,182.78-3,274.05,1.8,36.66,1.92,75.68.11,107.61-20.07,34.84-22,54.64-62.46,61.11-103.15,6.77-42.52,6-95.59-9.73-135.82C662.57,40.66,476,52.63,365.61,114.77c-23.22,13.08-47.29,26.75-73.78,31.72-27.58,5.18-48.83-8-73.56-18.14-34.58-14.12-74.65-15.16-109.28-1.18C-3,172.36-8.33,328.84,76.77,402,107.78,428.66,142.53,438.25,178.9,441.13Z" transform="translate(-18.3 -53.25)"/><path class="cls-4" d="M461.17,248.4l2.05-11.66-29.35-46.81a11.46,11.46,0,0,1-2.1-4l-15.23-51-14.66-.08L410.46,192a65.55,65.55,0,0,0,6.1,19.62l35.67,61.27Z" transform="translate(-18.3 -53.25)"/><path class="cls-4" d="M419.37,143.65s-3.08-7-3.62-12.91.41-7.39,0-12.41.6-12.84-.19-12.94-3.69-.21-4.11,3.43-1.16,7.39-1.16,7.39l-7.3-15s-2.82-5.91-5-4.58,4.85,12.61,4,13.25c-1.23.91-5.68-5.87-5.68-5.87s-4.51-7.48-6.76-6.19,6.77,13.25,6.77,13.25,1.07,2.24-.53,1.87-8-10.41-10.29-9.66,4.19,8.66,4.19,8.66,4.29,4,2.36,4.81-8.35-6.3-9.63-5,4.08,6.46,6.33,8.14a23.51,23.51,0,0,1,6.32,7.45c1.4,2.77,3.35,6.42,6.76,7.26l3.11,10Z" transform="translate(-18.3 -53.25)"/><path class="cls-5" d="M409.93,116.7s-2.81,7.41-2,10.5l-2.47-4.55S408.71,118.53,409.93,116.7Z" transform="translate(-18.3 -53.25)"/><path class="cls-6" d="M501.24,252.77s-8.87-26.07-23.82-26.68c-17.55-.71-40.3-36.16-40.3-36.16L420.9,135l-22.61,5.27s4.85,52.13,10.41,67.73c7.76,21.73,47.82,72.34,47.82,72.34Z" transform="translate(-18.3 -53.25)"/><path class="cls-7" d="M500.43,167.52l.81-13.26s-21.61-.47-28.27,21c-6.78,21.84-2,50.46-2,50.46l19,6,.46-59.06Z" transform="translate(-18.3 -53.25)"/><path class="cls-7" d="M498.15,167.52l2.26-13.26s19,1.39,24.08,19.84c6,21.83,4.07,52.2,4.07,52.2l-17.8,5.35-2.7-59.06Z" transform="translate(-18.3 -53.25)"/><polygon class="cls-8" points="477.62 143.15 503.59 136.77 505.88 182.47 458.43 178.4 459.98 134.6 477.62 143.15"/><path class="cls-4" d="M536,251.57l-2.05-11.66,28.47-35.27c1-1.18,2.56-14.08,3-15.53l15.23-51,14.66-.08-8.58,57.15a65.7,65.7,0,0,1-6.1,19.63l-35.67,61.26Z" transform="translate(-18.3 -53.25)"/><path class="cls-4" d="M577.79,146.82s3.07-7,3.62-12.91-.41-7.38,0-12.41-.61-12.84.19-12.94,3.68-.21,4.1,3.43,1.17,7.39,1.17,7.39l7.3-15s2.82-5.91,5-4.58-4.85,12.61-4,13.25c1.23.91,5.68-5.87,5.68-5.87s4.51-7.48,6.75-6.19-6.76,13.25-6.76,13.25-1.08,2.24.53,1.87,8-10.41,10.28-9.66-4.18,8.66-4.18,8.66-4.29,4-2.37,4.81,8.36-6.3,9.64-5-4.08,6.46-6.33,8.14a23.51,23.51,0,0,0-6.32,7.45c-1.4,2.78-3.35,6.42-6.77,7.27l-3.11,10Z" transform="translate(-18.3 -53.25)"/><path class="cls-5" d="M587.23,119.87s2.81,7.41,2,10.5l2.47-4.55S588.45,121.71,587.23,119.87Z" transform="translate(-18.3 -53.25)"/><path class="cls-6" d="M495.91,255.94s18.94-29.09,33.9-29.7c17.54-.71,31.35-26.43,31.35-26.43l15.1-61.69,22.61,5.27s-4.85,52.13-10.42,67.73c-7.75,21.73-49,73.46-49,73.46Z" transform="translate(-18.3 -53.25)"/><path class="cls-4" d="M485.89,196.65v27.17s12.46,4.27,19.73,3.51,7.83-5.31,7.83-5.31l-1.23-25.37Z" transform="translate(-18.3 -53.25)"/><path class="cls-9" d="M490.28,203.89l-3.59,6.22s10,12.67,26.76,11.91l-.83-22.85Z" transform="translate(-18.3 -53.25)"/><path class="cls-6" d="M469.73,224.27c-12.48-1.16-20,86-6.14,131.33,0,0,20.65.08,22.82-.55s7.15,4.36,17.62.28c0,0,25.24,9.36,27,2.81,16.46-59.81,5.6-132.13,5.6-132.13S501.24,227.19,469.73,224.27Z" transform="translate(-18.3 -53.25)"/><g class="cls-10"><path class="cls-11" d="M484.89,219s6.67,5.16,14.38,5.65c0,0-1.51,11.39-10.46,11.11s-13.63-10.4-13.63-10.4Z" transform="translate(-18.3 -53.25)"/><path class="cls-11" d="M513.65,219s-6.66,5.16-14.38,5.65c0,0,1.52,10.27,10.46,10s13.63-8.16,13.63-8.16Z" transform="translate(-18.3 -53.25)"/></g><path class="cls-12" d="M574.06,443.09c-.19-.57-.37.56-.56,0-7.67-23.37-13.34-63.12-23.78-84.78s-24.45-23.6-24.45-23.6h0l-38.1,6.66-19.32-4.45-3.24-3.32s-12,6.7-23.58,27.78-18.14,58.78-27,81.71c-.28.74-.58-.75-.87,0Z" transform="translate(-18.3 -53.25)"/><path class="cls-13" d="M573.5,443.09c-7.67-23.37-13.34-63.12-23.78-84.78s-24.45-23.6-24.45-23.6l-6,1.05A54.25,54.25,0,0,1,531.44,353c-.1.38-16.76,59.9-11.88,53.17s12.43-25.07,12.58-9.48-28.93,49.13-20.82,46.39,18.82-12.89,18.5-9.54-6.46,9.54-6.46,9.54h50.7C573.87,442.52,573.69,443.65,573.5,443.09Z" transform="translate(-18.3 -53.25)"/><path class="cls-14" d="M484.89,217.84s6.67,5.15,14.38,5.64c0,0-1.51,11.39-10.46,11.11s-13.63-10.4-13.63-10.4Z" transform="translate(-18.3 -53.25)"/><path class="cls-14" d="M513.65,217.84S507,223,499.27,223.48c0,0,1.52,10.27,10.46,10s13.63-8.16,13.63-8.16Z" transform="translate(-18.3 -53.25)"/><path class="cls-4" d="M478.07,181.66c.63-12.69,7.16-23.8,22.12-23.26,23,.83,23.5,39.18,11.77,51.51-7.12,7.47-19.55,7.08-25.27.2S477.56,191.87,478.07,181.66Z" transform="translate(-18.3 -53.25)"/><path class="cls-5" d="M518,178.1c-1.28-4.9-2.45-9.67-5.15-13.31L501.26,171s-1.59,9.92-.95,14.84c1.45,10.94,5.52,10.4,2.31,13.68-2.59,2.65,2.12,9-.39,15.76,4.06-.76,10.51-5.41,12.34-8.9C519.26,197.4,520.88,189.09,518,178.1Z" transform="translate(-18.3 -53.25)"/><path class="cls-7" d="M517.37,189.05" transform="translate(-18.3 -53.25)"/><path class="cls-7" d="M508.34,160.11s3.29-7-13.79-2.85-17.82,24.58-17.82,24.58l34.21-.23,1.56-12.28L514,181.68l3.24.06C519.44,164.2,508.34,160.11,508.34,160.11Z" transform="translate(-18.3 -53.25)"/><path class="cls-4" d="M482.34,183.2s-2.57-6.12-6.27-1.84,1.06,16.39,7.94,10.95" transform="translate(-18.3 -53.25)"/><path class="cls-4" d="M516.61,183.2s2.58-6.12,6.28-1.84-1.06,16.39-7.94,10.95" transform="translate(-18.3 -53.25)"/><path class="cls-5" d="M516.61,183.2s2.58-6.12,6.28-1.84-1.06,16.39-7.94,10.95" transform="translate(-18.3 -53.25)"/><path class="cls-12" d="M455.92,324.74s46.63,9.51,82.43,0v16s-28.16,13.93-82.43,0Z" transform="translate(-18.3 -53.25)"/><path class="cls-15" d="M437.4,203.89c-2.36,2.56-.28-14-.28-14l4.13,5.4S439.56,201.55,437.4,203.89Z" transform="translate(-18.3 -53.25)"/><path class="cls-11" d="M561.28,212.13c1.24-1.9-.12-12.88-.12-12.88l-3.83,6.25S560,214,561.28,212.13Z" transform="translate(-18.3 -53.25)"/><polygon class="cls-15" points="403.89 179.5 439.34 211.83 437.32 226.37 403.89 179.5"/><polygon class="cls-15" points="555.31 186.32 522.21 215.19 520.87 231.19 555.31 186.32"/><g class="cls-10"><path class="cls-11" d="M505.2,257.19c.77,2.19-.74,4.72-3.37,5.64s-5.39-.1-6.16-2.3.74-4.72,3.37-5.64S504.43,255,505.2,257.19Z" transform="translate(-18.3 -53.25)"/><path class="cls-11" d="M505.24,278.76c-.73,2.21-3.46,3.3-6.11,2.44s-4.22-3.36-3.5-5.57,3.46-3.3,6.11-2.44S506,276.55,505.24,278.76Z" transform="translate(-18.3 -53.25)"/><path class="cls-11" d="M504.94,293.25c1.05,2.08-.12,4.78-2.61,6s-5.36.6-6.41-1.48.12-4.78,2.61-6S503.89,291.18,504.94,293.25Z" transform="translate(-18.3 -53.25)"/><path class="cls-11" d="M505.24,315.44c-.73,2.21-3.46,3.3-6.11,2.43s-4.22-3.36-3.5-5.57,3.46-3.3,6.11-2.43S506,313.23,505.24,315.44Z" transform="translate(-18.3 -53.25)"/></g><path class="cls-14" d="M504.08,256.07c.77,2.19-.74,4.72-3.37,5.64s-5.39-.1-6.16-2.3.74-4.72,3.37-5.64S503.31,253.87,504.08,256.07Z" transform="translate(-18.3 -53.25)"/><path class="cls-14" d="M504.12,277.64c-.72,2.21-3.46,3.3-6.11,2.44s-4.22-3.36-3.5-5.57,3.46-3.3,6.11-2.43S504.84,275.43,504.12,277.64Z" transform="translate(-18.3 -53.25)"/><path class="cls-14" d="M503.82,292.14c1.05,2.07-.12,4.77-2.61,6s-5.36.6-6.4-1.48.12-4.78,2.61-6S502.77,290.06,503.82,292.14Z" transform="translate(-18.3 -53.25)"/><path class="cls-14" d="M504.12,314.32c-.72,2.21-3.46,3.3-6.11,2.43s-4.22-3.36-3.5-5.57,3.46-3.3,6.11-2.43S504.84,312.11,504.12,314.32Z" transform="translate(-18.3 -53.25)"/><path class="cls-13" d="M455.92,324.74s46.63,9.51,82.43,0v16s-28.16,13.93-82.43,0Z" transform="translate(-18.3 -53.25)"/><path class="cls-4" d="M183.75,116.55s1-8.85,3.85-15.07,4.69-7.17,7.16-12.47,8-12.53,7.3-13.1S198.48,73.57,196,77s-5.44,6.74-5.44,6.74l1.34-19.25s.59-7.58-2.4-7.53S187,72.42,185.77,72.56c-1.76.2-2.3-9.19-2.3-9.19s-.19-10.12-3.19-10.12-.89,17.22-.89,17.22-.22,2.87-1.61,1.57S175.73,56.93,173,56.38s-.81,11.12-.81,11.12,2,6.55-.41,6.19-4.74-11.15-6.77-10.6.35,8.84,1.63,11.83a27.3,27.3,0,0,1,2,11.15c-.21,3.59-.36,8.38,2.58,11.21l-2.69,11.87Z" transform="translate(-18.3 -53.25)"/><path class="cls-5" d="M189.89,84s-7.11,5.81-8.08,9.39l.15-6S187.6,85.16,189.89,84Z" transform="translate(-18.3 -53.25)"/><path class="cls-14" d="M212.23,351.08l-8.9,4.71s-5.24,50.64,2.09,87.3h41.65l6-48.28,7.33,48.28h44s11-66.35-9.95-100.91S212.23,351.08,212.23,351.08Z" transform="translate(-18.3 -53.25)"/><path class="cls-16" d="M296.31,359s-3.67-2.53-14.48-3.31l1.39,4.29a75.65,75.65,0,0,1,3.56,23.52c0,3.56.23,7.12,1,9.12,2.05,5,5.77,17,5.77,17l12.86-12.43L305.32,369Z" transform="translate(-18.3 -53.25)"/><path class="cls-6" d="M190.37,101.9l2.13,76.36s12.76,22.38,26.35,28.5-10.68,81-21.14,69.21c-9.38-10.58-30.08-59.23-37.5-77.83a39.18,39.18,0,0,1-2.57-18.46L166.9,100Z" transform="translate(-18.3 -53.25)"/><path class="cls-4" d="M310,372l1.2,19.27a9.29,9.29,0,0,1-1.34,5.39l-5.64,9.18a8,8,0,0,1-2.71,2.69,47.22,47.22,0,0,1-6.23,3.3c-1.23.44-1.59-.85-1.64-2.22a5.2,5.2,0,0,1,1.81-4.13l2.77-2.42a2.73,2.73,0,0,0,.9-1.55l2.06-10.36a1.34,1.34,0,0,0-.57-1.38l-1.3-.86a1.35,1.35,0,0,0-2.07.91l-1.3,8.35a1.53,1.53,0,0,1-2.65.78l-1.05-1.2a4.53,4.53,0,0,1-1-2l-1.82-9a7,7,0,0,1,.71-4.76l5.81-10.71Z" transform="translate(-18.3 -53.25)"/><path class="cls-7" d="M272.91,160s4.25,13.42,1.36,21.16l-.93-1.49s.47,6.34-2.51,9.13L270,187s-1.93,6.13-3.16,8l-.57-1.3-2.37,6.51-10.22-3.34-2.41-9.22s5.12-15.42,5.77-15.92S272.91,160,272.91,160Z" transform="translate(-18.3 -53.25)"/><path class="cls-6" d="M266,210.71s7.74-3.14,20.38-1,19.83,12,30.27,47.76,9.89,53.84,9.89,53.84l-9.93,64.38-24.14-3.36V304.75Z" transform="translate(-18.3 -53.25)"/><path class="cls-7" d="M225.1,160s-4.25,13.42-1.36,21.16l.93-1.49s-.47,6.34,2.52,9.13L228,187s1.92,6.13,3.15,8l.57-1.3,2.38,6.51,10.21-3.34,2.41-9.22s-5.11-15.42-5.77-15.92S225.1,160,225.1,160Z" transform="translate(-18.3 -53.25)"/><path class="cls-4" d="M237.61,187.94l-1.8-1.59-.3,11.38a5.75,5.75,0,0,1-3.74,5.22h0a4.68,4.68,0,0,0-.73,8.44c4.85,2.8,11.42,5.53,18,5a59.63,59.63,0,0,0,18.37-5.1,3.23,3.23,0,0,0,0-5.92h0a5.71,5.71,0,0,1-3.45-5.11l-.42-15.5Z" transform="translate(-18.3 -53.25)"/><path class="cls-6" d="M235.5,208.5s47.45-9.26,57.06,14.09S296,311.48,296,311.48l3.1,48s-10.3-8.92-31.81,0-61.18,28.89-68.86,4.81c-8.73-27.4-1.1-73.1,0-133.19C198.65,220.3,198.43,201,235.5,208.5Z" transform="translate(-18.3 -53.25)"/><path class="cls-15" d="M226.17,212.18s19.3,7.9,38.21,4.73a10.17,10.17,0,0,0,6.33-3.6,8.22,8.22,0,0,0,1.79-4.37c.44-5.1-11.52,0-11.52,0Z" transform="translate(-18.3 -53.25)"/><path class="cls-6" d="M230.34,198c6.52-2.6,8.27,3.82,28.48-.19,4.24-.85,10.89-1.88,13.28,2.86,1.17,2.34.4,8.31,2.39,9.48,3.07,1.82-6.43,3.27-9.64,3.72a118.09,118.09,0,0,1-32.36.21c-2.62-.37-11.58-1-9.76-3.28C228.71,203.13,224.66,200.23,230.34,198Z" transform="translate(-18.3 -53.25)"/><path class="cls-15" d="M241.27,191.9l-5.71,3.87s3.31,10.71,15,10.92c9.33.17,14.79-15.86,14.79-15.86Z" transform="translate(-18.3 -53.25)"/><path class="cls-4" d="M226.34,162.1c1.51-13.94,9.42-25.76,25.86-24.2,25.27,2.39,23.37,44.68,9.65,57.5-8.32,7.77-22,6.54-27.85-1.41S225.12,173.31,226.34,162.1Z" transform="translate(-18.3 -53.25)"/><path class="cls-17" d="M270.57,160.75c-1.09-5.48-2.06-10.81-4.81-15l-13.19,6.06s-2.39,10.83-2,16.29c.88,12.14,5.4,11.81,1.66,15.22-3,2.75,1.76,10-1.45,17.33,4.52-.57,11.55-4.48,13.69-8.27C269.94,182.67,273,173,270.57,160.75Z" transform="translate(-18.3 -53.25)"/><path class="cls-7" d="M266.83,150.13a39.05,39.05,0,0,1-18.58,4.61c-10.63-.11-15-3.54-17.94-6.29a19.15,19.15,0,0,1-5.17-13c.2-4.41.63-1.07,3.34,1.18s2.42-.67,1-3.34-1.46-6,.3-4.94,5.16,4.84,7.6,4.73-2.05-2-1.17-3.33,2.83,3.12,9.65,3.33,15.41,0,19.8,4S266.83,150.13,266.83,150.13Z" transform="translate(-18.3 -53.25)"/><path class="cls-7" d="M258.33,144.32a17.81,17.81,0,0,0,7.16,14c4.77,3.59,6,13.39,6,13.39l.69-1.07s2.61-1.5,2.61-7.07a39.88,39.88,0,0,0-.84-8.89s1.59,4.82,1.59,3.32.75-2.68-1.21-6.11-1.4-3.33-1.4-3.33L275.3,151a57.22,57.22,0,0,0-3.51-7.5,11.23,11.23,0,0,0-10.85-5.71C256.47,138.09,258.33,144.32,258.33,144.32Z" transform="translate(-18.3 -53.25)"/><path class="cls-7" d="M238.48,144.46s-.92,8.44-7.15,14.32a17.09,17.09,0,0,0-5.26,14.42l-1.48-1.85s-2.61-1.53-2.61-7.22a41.5,41.5,0,0,1,.84-9.07s-1.58,4.92-1.58,3.39-.75-2.73,1.21-6.23,1.4-3.4,1.4-3.4l-2.33,2.41a60,60,0,0,1,3.5-7.65,11.2,11.2,0,0,1,10.85-5.82C240.35,138.09,238.48,144.46,238.48,144.46Z" transform="translate(-18.3 -53.25)"/><path class="cls-4" d="M230,166.17s-1.58-4.08-4.85-3.5c-4.69.84-5.77,14.41,3.58,14.41" transform="translate(-18.3 -53.25)"/><path class="cls-4" d="M268.07,166.17s1.57-4.08,4.84-3.5c4.7.84,5.78,14.41-3.57,14.41" transform="translate(-18.3 -53.25)"/><path class="cls-17" d="M268.07,166.17s1.57-4.08,4.84-3.5c4.7.84,5.78,14.41-3.57,14.41" transform="translate(-18.3 -53.25)"/><polygon class="cls-15" points="170.86 141.05 174.36 124.89 177.53 129.61 170.86 141.05"/><path class="cls-11" d="M171.07,224.06l29.18,34.14L197.71,276S176.42,243.46,171.07,224.06Z" transform="translate(-18.3 -53.25)"/><polygon class="cls-11" points="274.39 303.86 278.01 251.72 267.09 195.52 271.98 251.5 263.53 302.48 274.39 303.86"/><path class="cls-16" d="M244.85,378.31s-1.7,11.77-2.28,15.69c-3.92,26.67-14.52,31.42-11.23,31.42H238l-8.48,17.67h17.55l6-48.28Z" transform="translate(-18.3 -53.25)"/><path class="cls-18" d="M334.31,218.08l-6.65-2.74s3.14-16.24,27.19-21.44c28-6.05,34.89-1.64,43.95,9.56" transform="translate(-18.3 -53.25)"/><path class="cls-4" d="M353.94,190.49,352,189.07l.73,11.36a5.75,5.75,0,0,1-3.25,5.54l-8,3.84s13.84,10.19,26.42,7.94,23.82-10.48,23.82-10.48l-6.56-2.16a5.74,5.74,0,0,1-3.91-4.77L379.41,185Z" transform="translate(-18.3 -53.25)"/><path class="cls-19" d="M353.94,190.49l-1.46,5.92s7.28,9,17.41,9.1,12.55-2.27,12.55-2.27S381,200.73,380,187.85Z" transform="translate(-18.3 -53.25)"/><path class="cls-7" d="M366.94,140.75s14.53-8.47,18.2-1.75.48,7,4,11c2.76,3.19,3.62,7.4,1.24,12.43a12.72,12.72,0,0,0,.73,12,.7.7,0,0,0,.1.16c6.07,6.92-1.82,16.41-6.12,16-8.16-.75-10.61,2.63-10.13,4.81s-17.65-1.41-17.65-1.41-8.24,2.3-12,2-9-1.59-9.12-6.79,5.72-7.75,1.47-11.06-10.56-12-5.44-19c5.93-8.2,16.16-11.62,16.16-11.62Z" transform="translate(-18.3 -53.25)"/><path class="cls-4" d="M341.47,165.71c.23-13.19,6.63-25,22.17-24.89,23.89.08,25.72,39.87,14,53.06-7.14,8-20.06,8-26.22,1.06S341.29,176.33,341.47,165.71Z" transform="translate(-18.3 -53.25)"/><path class="cls-20" d="M382.81,160.67c-1.49-5-2.86-10-5.79-13.65l-11.84,6.81s-1.32,10.35-.48,15.44c1.87,11.3,6.07,10.6,2.86,14.11-2.6,2.84,2.5,9.24.12,16.37,4.19-.92,10.62-4.5,12.18-8.29C383.61,182.29,386.16,172,382.81,160.67Z" transform="translate(-18.3 -53.25)"/><polygon class="cls-21" points="367.04 300.53 367.04 352.66 356.12 389.84 320.03 389.84 317.24 308.34 321.6 280.16 346.83 278.14 362.14 286.95 367.04 300.53"/><polygon class="cls-22" points="367.04 300.53 367.04 352.66 356.12 389.84 320.03 389.84 317.24 308.34 321.6 280.16 346.83 278.14 362.14 286.95 367.04 300.53"/><path class="cls-7" d="M378.33,140.53s-3.9,15.66-9.7,15.37-8.42-1.82-10.18.2-.87,7.08-5.45,7.63-7.18-2.07-8.94,1.19-8.67,7.57-10.35,3.52-.17,4-.17,4-6.9-8.22-1-15c4.36-5,1.69-5.93,2-10.73s4.09-8.47,11.36-8.61,8.7-8.35,15.53-6.29,5.52,4.24,10.3,3.35,10.43-1,13.46,3.79S378.33,140.53,378.33,140.53Z" transform="translate(-18.3 -53.25)"/><path class="cls-21" d="M418.18,317.23s10.28,21.57,11.72,52.13-2.56,73.73-2.56,73.73h-42l-8.59-111.94-.08.24Z" transform="translate(-18.3 -53.25)"/><path class="cls-4" d="M417,140.63s-6.32-5.27-12.21-7.59-7.71-1.78-12.75-3.74-13.38-3.22-13.26-4.07.89-3.85,4.76-3.19,7.95,1,7.95,1l-13.21-12s-5.25-4.67-3.22-6.55,11.54,8.76,12.45,8.06c1.3-1-4.34-7.6-4.34-7.6s-6.35-6.87-4.35-8.79,11.6,10.92,11.6,10.92,2,1.78,2.09,0-8.31-11.38-6.86-13.47,7.65,6.9,7.65,6.9,2.89,5.62,4.24,3.87-4-10.48-2.27-11.41,5.42,6.12,6.48,8.94a25.39,25.39,0,0,0,5.77,8.74c2.44,2.26,5.61,5.36,5.46,9.13l9.39,6.19Z" transform="translate(-18.3 -53.25)"/><path class="cls-5" d="M392.11,122.85s8.45-.67,11.39,1.1l-3.94-3.9S394.36,122.15,392.11,122.85Z" transform="translate(-18.3 -53.25)"/><path class="cls-4" d="M345.78,167.92s-2.11-6.8-6.5-2.62-.58,17.58,7.32,12.51" transform="translate(-18.3 -53.25)"/><path class="cls-7" d="M385.7,168.16s.27-6.48-3-6.34c-4.1.19-4.75-2.9-4.52-6.41.39-5.83-5.55,2.36-11.7.32-3.81-1.26-2.44-8.46-2.44-8.46l3.8-5.29,12.78-.82,6.87,10Z" transform="translate(-18.3 -53.25)"/><path class="cls-4" d="M381.9,164.93s.81-6,5.1-3.13,3,14.74-4.41,11.57" transform="translate(-18.3 -53.25)"/><path class="cls-5" d="M381.9,164.93s.81-6,5.1-3.13,3,14.74-4.41,11.57" transform="translate(-18.3 -53.25)"/><path class="cls-6" d="M343.75,209.19s9.09,7.17,25.47,3.57,17.13-7.25,17.13-7.25l14,4.13,8.79,16.3s6.59,14,6.59,15.18-3.6,19.58-3.6,19.58L418,325s-10.29,13.74-37.11,17.33-43.51-6.55-43.51-6.55V220l-1.68-10Z" transform="translate(-18.3 -53.25)"/><path class="cls-4" d="M278.51,353,266,367.73a9.23,9.23,0,0,0-2.14,5.12l-1,10.73a8.12,8.12,0,0,0,.57,3.77,46,46,0,0,0,3,6.38c.72,1.08,1.77.26,2.64-.8a5.21,5.21,0,0,0,1-4.39l-.78-3.6a2.8,2.8,0,0,1,.21-1.78l4.54-9.54a1.35,1.35,0,0,1,1.29-.76l1.55.08a1.34,1.34,0,0,1,1.11,2l-3.94,7.48a1.52,1.52,0,0,0,1.66,2.19l1.55-.32a4.37,4.37,0,0,0,2-1l6.87-6.14a7.1,7.1,0,0,0,2.27-4.25l1.75-12.06Z" transform="translate(-18.3 -53.25)"/><g class="cls-23"><path class="cls-14" d="M332.07,226.06s24.26,8.85,73.55-2.79v25.87s-32.81,13.7-73.55,3.92Z" transform="translate(-18.3 -53.25)"/><path class="cls-14" d="M334.46,268.77S358.73,277.62,408,266v25.87s-32.81,13.69-73.56,3.92Z" transform="translate(-18.3 -53.25)"/><path class="cls-14" d="M336.86,312.68s24.26,8.84,73.55-2.79v25.87s-32.8,13.69-73.55,3.92Z" transform="translate(-18.3 -53.25)"/></g><path class="cls-18" d="M384.45,203.46s-1.81,2.41-.19,16.08-1.92,25.69-.48,39.7-4.27,28,2.42,45.7,6.9,62.72,6.9,62.72l2.8,6s28.35-.33,39.36-9.34c0,0,1.34-15.68-1.67-28s-11.67-33.69-12.34-49.54.83-37.15.83-37.15l-11.5-34.74,6-18.47S404.23,207.46,384.45,203.46Z" transform="translate(-18.3 -53.25)"/><path class="cls-18" d="M394.3,211.54l4.25-6.61c8.69-5.6,20.67-13.25,25.72-22.27l4.65-8.31-26.68-39.54s12.09-8.34,15.72-15.68c0,0,28.31,18.51,39.65,35.94l7,12.83s1.67,50-51.38,88.67Z" transform="translate(-18.3 -53.25)"/><path class="cls-18" d="M341.45,209.81s5.41,5.4,8.41,17.74,7.34,27.69,7.67,44.7,0,45,0,53.71,4.14,51.71,4.14,51.71-29.15,1.33-33.49-5.34c0,0,3.67-32.69,4-41.37s.34-15,.67-29.35-5-30.69-4.67-41-7.67-36.37-7.67-36.37S329,208.76,341.45,209.81Z" transform="translate(-18.3 -53.25)"/><path class="cls-18" d="M335.66,224.21l-8-8.87s-10.82,4.2-13.49,22.22-10.68,57.71-10.68,57.71-7,8.67-10,14.68-19,44.36-19,44.36,12.34,9.34,18.68,9.68c0,0,35-40,42.51-54.71S335.66,224.21,335.66,224.21Z" transform="translate(-18.3 -53.25)"/><path class="cls-24" d="M393.1,205.51l5.7-2s-1.65,2.89-3.84,6.3a96.71,96.71,0,0,0-8.85,17.32Z" transform="translate(-18.3 -53.25)"/><path class="cls-24" d="M333.55,214.43l-5.89,1.43a58,58,0,0,1,9.2,6.69c2.22,2.19,6.94,5.89,12.28,13.18Z" transform="translate(-18.3 -53.25)"/><path class="cls-18" d="M351.28,204.63c-4,14.82-.51,26,1.2,33.54,0,0-11-18.67-24.82-22.83C327.66,215.34,354.77,191.89,351.28,204.63Z" transform="translate(-18.3 -53.25)"/><path class="cls-18" d="M381.91,201.25c3.16,10.6,2.66,31,2.66,31s4.61-16.58,7.33-20.67c5-7.57,6.9-8.08,6.9-8.08S378.49,189.76,381.91,201.25Z" transform="translate(-18.3 -53.25)"/><path class="cls-24" d="M352.48,198.28s-6.7,3.64-3.07,19.8c0,0-.19-10.84,1.87-13.45C351.28,204.63,353.58,201.61,352.48,198.28Z" transform="translate(-18.3 -53.25)"/><path class="cls-24" d="M380.76,196.4s.26,5.5,1.68,6.84l1.15,6.72S385,201.16,380.76,196.4Z" transform="translate(-18.3 -53.25)"/><polygon class="cls-24" points="314.37 213.34 314.37 261.09 300.01 280.54 309.36 252.29 314.37 213.34"/><path class="cls-24" d="M443.64,225.08s-20.52,12-24.61,19c-5.5,9.5,2.09,38,2.09,38l1-32.55S436.48,236.24,443.64,225.08Z" transform="translate(-18.3 -53.25)"/><polygon class="cls-24" points="417.74 134.6 410.74 121.1 408.27 125.51 417.74 134.6"/><polygon class="cls-24" points="285.19 242.02 292.43 236.42 285.75 239.22 285.19 242.02"/><polygon class="cls-25" points="360.87 310.81 364.8 364.1 356.12 389.84 348.73 389.84 360.87 310.81"/><path class="cls-7" d="M178,188.84l3-19s13.16,25.65,3,51.42c0,0-4.37,20.39-3.83,24s-12.52,0-12.52,0l-13.8-5.28-1.68-34.22Z" transform="translate(-18.3 -53.25)"/><path class="cls-8" d="M168,208.42l12.18-7.08s-1.57,14.23-3.28,22.79,1,28.11,1,28.11l-22.12-.51-.72-19" transform="translate(-18.3 -53.25)"/><path class="cls-4" d="M165.75,220.08s-3.87,12.36-3.32,14.94,16.44,5,23.17,13.29-23.22,12.36-23.22,12.36L144,264.91l-27.12-28.6,5-13.65L141.05,230l4.22-16.79Z" transform="translate(-18.3 -53.25)"/><path class="cls-26" d="M165.75,220.08S161.94,233,162.43,235s14.44,6.8,14.44,6.8-15.66,5.47-25.15-1.24-7.12-23.77-7.12-23.77Z" transform="translate(-18.3 -53.25)"/><path class="cls-7" d="M148.8,179.59,138,171.92s-12.29,14.48-14.47,43.25l12.61,10.29,6,.12,10-29.38Z" transform="translate(-18.3 -53.25)"/><path class="cls-4" d="M141.86,187.92c3.86-11.69,12.83-20.39,26.66-16,21.27,6.7,11.87,42.68-2.27,51.17-8.57,5.15-20.09,1.58-23.66-6.32S138.76,197.34,141.86,187.92Z" transform="translate(-18.3 -53.25)"/><path class="cls-5" d="M180.11,194.89c.07-4.91.21-9.67-1.38-13.76l-12.44,2.78s-4,8.86-4.71,13.63c-1.47,10.59,2.47,11.13-1.37,13.37-3.1,1.81-.32,8.93-4.42,14.63,4,.33,11.21-2.35,13.82-5.14C176.3,213.25,180,205.9,180.11,194.89Z" transform="translate(-18.3 -53.25)"/><path class="cls-27" d="M168,357.58s14,26.18,16.52,85.51H63.77s-.08-27.5,10.87-62.15,22.89-42.7,22.89-42.7" transform="translate(-18.3 -53.25)"/><path class="cls-28" d="M95.22,355.27s-12.55,14.2-14.34,63.19c0,0,10.75-45.4,25.09-59.15" transform="translate(-18.3 -53.25)"/><path class="cls-28" d="M162.06,356.41s10.65,15.67,6.26,64.5c0,0-4.95-46.4-17.44-61.84" transform="translate(-18.3 -53.25)"/><path class="cls-28" d="M114.57,356.9s-9.17,16.58-.33,64.8c0,0,.68-46.66,11.71-63.18" transform="translate(-18.3 -53.25)"/><path class="cls-28" d="M131.13,357.21s-5.18,22,2.63,75c0,0,3.2-51.26,9-73.31" transform="translate(-18.3 -53.25)"/><path class="cls-7" d="M177.88,168s2.34,22-15.19,22.82-17-4.76-25.36,5.34c-4.4,5.3-6-9.11-4.75-15.07C134.81,170.77,158.86,149,177.88,168Z" transform="translate(-18.3 -53.25)"/><path class="cls-7" d="M170.05,174.71s4.24,25.09,10.1,26.63c7.8,2,9.59-29.42-5.05-35.64-13.14-5.59-4.91,10.55-4.91,10.55l8.54,4.88" transform="translate(-18.3 -53.25)"/><path class="cls-4" d="M159.31,276.8l18.6-24.56a1.3,1.3,0,0,1,1.41-.46c3.55,1.13,16.63,6.76,16.34,28.31a320.85,320.85,0,0,1-4.47,47.31,1.16,1.16,0,0,0,0,.49c.74,3.29,7.49,41.8,10.66,51.19,3.33,9.85,4.45,17.48,1.12,24.47s-10.94,9.12-11.42,7.79,3.85-5.75,3.93-9.45c0-.25.15-.48.12-.73l-.5-4a1.29,1.29,0,0,0-2.38-.53l-1.55,2.5-.06.1-.75,1.47a1.3,1.3,0,0,1-2.45-.49c-.24-3.17.56-6.94.31-7.69-.36-1.08,1.4-6.31,2.5-8.26a1.28,1.28,0,0,0-.09-1.4C187.71,379,173,359,170.5,351c-2.65-8.52-10.61-67-11.45-73.21A1.29,1.29,0,0,1,159.31,276.8Z" transform="translate(-18.3 -53.25)"/><path class="cls-4" d="M113.74,241.82l4.61-10.91-18.13-52.19a11.44,11.44,0,0,1-1.16-4.36l-3.44-53.11L81.35,117.9l-4.42,57.62A65.67,65.67,0,0,0,78.48,196L99.54,263.7Z" transform="translate(-18.3 -53.25)"/><path class="cls-12" d="M176.87,241.82l-21.8,28.77s8.58,63.73,12.23,80c12.84-18.41,23.8-23.52,23.8-23.52a357.41,357.41,0,0,0,5.05-53.28C196.53,245.87,176.87,241.82,176.87,241.82Z" transform="translate(-18.3 -53.25)"/><path class="cls-4" d="M96.44,130.37S95,122.83,95.8,117s2-7.1,2.75-12.1,3.45-12.37,2.7-12.65-3.54-1-4.77,2.42-2.78,7-2.78,7L89.93,85.37s-1.43-6.4-3.88-5.6,1.89,13.38.91,13.81c-1.4.61-4.22-7-4.22-7S80,78.29,77.55,79s3.63,14.43,3.63,14.43.54,2.43-.94,1.7-5.51-11.94-7.87-11.71,2.15,9.37,2.15,9.37,3.27,4.91,1.23,5.22-6.74-8-8.27-7,2.53,7.21,4.34,9.35a23.61,23.61,0,0,1,4.5,8.68c.74,3,1.83,7,5,8.59l.78,10.47Z" transform="translate(-18.3 -53.25)"/><path class="cls-5" d="M93.26,102s-4.39,6.59-4.28,9.79l-1.39-5S91.67,103.51,93.26,102Z" transform="translate(-18.3 -53.25)"/><path class="cls-12" d="M100.22,178.72a11.44,11.44,0,0,1-1.16-4.36s-8,12-21.81,14.79A64.46,64.46,0,0,0,78.48,196L97,273.91l16.78-32.09s12.34-15,9.22-19.16C112.25,208.42,100.22,178.72,100.22,178.72Z" transform="translate(-18.3 -53.25)"/><path class="cls-12" d="M157.74,245.23c6.31.25,14.16-.25,19.13-3.41,0,0,11.08,4.63,13.88,15.26S178.92,281.21,176.87,298s-5.14,42.19-5.14,42.19,5.21,26.34-1.73,30.23-16.45,1.43-24,0-19.86,5.05-31.32,2.09-16.5-10.22-23.78-10.22-14.54-1.4-12.58-9.23,14-38.6,14.26-47.82,3.64-40.28,3.64-40.28,10.58-41.38,22.67-43.6c4.68-.87,11.85,6.53,11.85,6.53a23.13,23.13,0,0,0,3.43,5.67A31.34,31.34,0,0,0,157.74,245.23Z" transform="translate(-18.3 -53.25)"/><path class="cls-13" d="M179.1,283.09s-8,46.22-7.37,57.05c.49,8.75.64,3.73.64,3.73l8.64-9.3S178.06,313.94,179.1,283.09Z" transform="translate(-18.3 -53.25)"/><path class="cls-7" d="M134.81,209.58s-7.27-14.75-10.34-.83-.45,23.47.5,31.81a26.1,26.1,0,0,1-10.18,23.82s26.87,6.63,27-12.65c.15-19.69-2.12-15.33.78-29.41C143.34,218.67,131.18,218.28,134.81,209.58Z" transform="translate(-18.3 -53.25)"/><path class="cls-13" d="M85.38,225.58l17.54,36.93-9.33,33.7s1.22-18,2-25.62C96.22,264.91,85.38,225.58,85.38,225.58Z" transform="translate(-18.3 -53.25)"/><path class="cls-4" d="M144.06,194.35s-.86-6.59-5.56-3.44-3.33,16.08,4.75,12.66" transform="translate(-18.3 -53.25)"/><path class="cls-4" d="M175.68,200.71s2.5-5.1,5.44-1.27-1.71,13.92-7.31,8.95" transform="translate(-18.3 -53.25)"/><path class="cls-5" d="M175.68,200.71s2.5-5.1,5.44-1.27-1.71,13.92-7.31,8.95" transform="translate(-18.3 -53.25)"/><path class="cls-7" d="M616.09,177.43s-4.38,4-1,1.52c7-5.2,23.76-2.87,27.06,18,2.67,16.88-.46,23.56,13.83,27.59,9,2.53,15.06,8.47,17.75,17.62s2.78,18.39,12.77,29.34-5.8,29.79-20.3,30.85-59.49-4.55-59.49-4.55Z" transform="translate(-18.3 -53.25)"/><path class="cls-7" d="M621,176.53s.06-2.46-7-3.54c-15.2-2.32-24.87,7.67-28.94,22.53s2.34,19.18-10.44,27-19,10.06-21,27.49,6.68,16.48,0,27.56,7.55,24.72,7.55,24.72l22.66-2.9L598,298l12.78-.29,8.42-32.25Z" transform="translate(-18.3 -53.25)"/><path class="cls-8" d="M596.53,195.17s-10.09,7.94-4.15,27.37c0,0,3.18,5.18-6,9.37s-29.17,15.47-23.69,40.29S611,290.25,611,290.25l44.8-3.87s17.73,6,18-3.6-3.54-31-14.84-40.53c-9.89-8.29-25.46-11.52-24.34-19.71,2-14.89-11.1-21.51-11.1-21.51Z" transform="translate(-18.3 -53.25)"/><polygon class="cls-14" points="569.27 317.48 547.67 337.14 547.07 389.84 593.44 389.84 609.43 326.42 569.27 317.48"/><polygon class="cls-29" points="569.27 317.48 547.67 337.14 547.07 389.84 593.44 389.84 609.43 326.42 569.27 317.48"/><path class="cls-30" d="M612,379.83l-4.28,19a43.93,43.93,0,0,1-4,10.88c-4.11,7.78-11.21,21.66-9.11,20.73a41.89,41.89,0,0,0,7.13-4.93l-.18.8L592,443.09h19.72L623,406.18Z" transform="translate(-18.3 -53.25)"/><path class="cls-14" d="M613.44,384.35l34.31-23.5c10.16-7,23.88.3,26.29,12.38,4.87,24.41-2.6,29-7.06,48.57l-6.13,21.29H616.43Z" transform="translate(-18.3 -53.25)"/><path class="cls-4" d="M530.66,269.9s-3-7.08-3.47-13,.51-7.39.13-12.43.77-12.85,0-13-3.69-.26-4.16,3.38-1.25,7.39-1.25,7.39l-7.13-15.08s-2.75-6-5-4.66,4.7,12.7,3.83,13.33c-1.25.89-5.62-6-5.62-6s-4.42-7.54-6.68-6.28S507.9,237,507.9,237s1.05,2.27-.56,1.87-7.92-10.53-10.18-9.8,4.09,8.72,4.09,8.72,4.24,4.12,2.3,4.85-8.29-6.41-9.59-5.14,4,6.52,6.24,8.24a23.63,23.63,0,0,1,6.24,7.54c1.37,2.8,3.27,6.47,6.68,7.36l3,10.09Z" transform="translate(-18.3 -53.25)"/><path class="cls-5" d="M521.54,242.79s-2.91,7.38-2.12,10.49L517,248.7S520.29,244.61,521.54,242.79Z" transform="translate(-18.3 -53.25)"/><path class="cls-31" d="M641.7,245.36s-15,3.06-40,.76c-30.82-2.84-30,12.4-28.69,35.61s2.71,51.13,2.71,51.13-12.7,53.66-9.8,57.53,74.09,22.16,108.9-.07c0,0,5.84-9.63-10.62-48.55-13.41-31.69-5-63.7-5-63.7S666.05,243.87,641.7,245.36Z" transform="translate(-18.3 -53.25)"/><path class="cls-31" d="M589,246.37s-9.26-2.22-18.42,6.41-21.09,49.13-21.09,49.13l-21.86-42.59s-4.76,2.82-14.68,4.27c0,0,2.31,91.83,31.18,89.05,13.61-1.31,35.87-28.39,35.87-28.39l1.11-65.54Z" transform="translate(-18.3 -53.25)"/><path class="cls-32" d="M573.06,293l2.13,36.73s-18.63,22-31.05,22.91c0,0,11.94-6.06,16.57-14.53,4.4-8-.73-9.89.94-12.5C567,317.29,573.06,293,573.06,293Z" transform="translate(-18.3 -53.25)"/><polygon class="cls-32" points="620.83 224.34 633.12 269.06 603.75 311.68 627.23 267.64 620.83 224.34"/><polygon class="cls-32" points="622.61 304.88 593.7 341.61 653.1 307.64 645.95 288.52 622.61 304.88"/><path class="cls-33" d="M597.22,392.25c-.52-1.29,1.21-2,5.59-3.83.17-.07,1-1,1.15-1.07.69-.36-5.49,2.41-6.13,1.26-.84-1.52.35-2.37,5.9-4.73,3.58-1.52,7-2.72,7.31-4.05.82-3.43-8.93-2.31-5.26-4.32a40.39,40.39,0,0,1,6.13-2.23c3.21-.87,2.73-.95,8.83-1.17,9.58-.34,16.64-15.74,14.15-4.37a30.86,30.86,0,0,1-4.5,11.46c-5.06,7.28-13.24,13.47-18.39,15.66l-1,.43c-2.57,1.26-5,1.76-5.51,1.16-.71-.92,2.35-2.63,4.75-3.61.69-.28-8,3.19-8.76,2.17s3-2.91,5.85-4.1C608.14,390.58,598,394.2,597.22,392.25Z" transform="translate(-18.3 -53.25)"/><path class="cls-31" d="M635.49,247h1s20.72-8.07,31.36,12.06c7.45,14.11,12.83,47.43,14.41,65A31,31,0,0,1,675.81,346c-8,10.22-25,25-44.07,37.53L621,369.43l30.45-47.12L634.6,278.05C630.51,267.28,627.33,255.12,635.49,247Z" transform="translate(-18.3 -53.25)"/><path class="cls-4" d="M603.63,226.7l-1.85-1.53.1,11.43a5.77,5.77,0,0,1-3.56,5.38l-8.27,3.41a49.87,49.87,0,0,0,26.05,7.48c12.84-.16,24.46-7.27,24.46-7.27l-6.46-2.52a5.78,5.78,0,0,1-3.65-5l-1-15.53Z" transform="translate(-18.3 -53.25)"/><path class="cls-34" d="M604.27,222.54l-3-2.89V231S606.46,245.9,621,247s20.85-.63,20.74-1.61c0,0-10.84-1.32-11.16-6.4s-1.07-16.42-1.07-16.42Z" transform="translate(-18.3 -53.25)"/><path class="cls-4" d="M592.49,201.17c1-13.22,8-24.65,23.6-23.74,23.95,1.4,23.6,41.4,11.08,54-7.59,7.63-20.55,6.93-26.35-.37S591.73,211.8,592.49,201.17Z" transform="translate(-18.3 -53.25)"/><path class="cls-20" d="M634.22,198.38c-1.22-5.14-2.32-10.14-5.05-14l-12.25,6.17S615,200.87,615.59,206c1.25,11.44,5.51,11,2.09,14.31-2.76,2.71,2,9.4-.78,16.42,4.25-.7,10.9-3.93,12.67-7.65C633.84,220.11,637,209.91,634.22,198.38Z" transform="translate(-18.3 -53.25)"/><polygon class="cls-32" points="535.28 263.88 531.2 248.66 533.24 242.1 535.28 263.88"/><path class="cls-7" d="M585.85,199.11c.66-6.8,6.53-24.25,28.14-26.12,8.26-.71,8.06,13.73,2.19,21.42-3.82,5-8,5.15-14.21,7.08-11.84,3.71-9.59,21-9.59,21S585.31,204.58,585.85,199.11Z" transform="translate(-18.3 -53.25)"/><path class="cls-7" d="M616.73,187.29s1.21,10.21,9.9,11c14.59,1.25,3.6,27.2,11.51,27.2,3.35,0-.2-18.75-.2-18.75l-1.73-11.78L633,184.51l-4.48-2.89-9.47-5-3.9,3.71Z" transform="translate(-18.3 -53.25)"/><path class="cls-4" d="M598,207.31s-.4-5.46-5.22-3.68-4.52,15.2,4.36,14.06" transform="translate(-18.3 -53.25)"/><path class="cls-4" d="M630.54,207s.4-5.46,5.21-3.68,4.53,15.2-4.35,14.06" transform="translate(-18.3 -53.25)"/><path class="cls-20" d="M630.54,207s.4-5.46,5.21-3.68,4.53,15.2-4.35,14.06" transform="translate(-18.3 -53.25)"/></g></g></svg>