<svg id="Capa_1" data-name="Capa 1" xmlns="http://www.w3.org/2000/svg" viewBox="0 0 193.21 187.19"><defs><style>.cls-1{fill:#fdfdfd;}.cls-2{fill:#222628;}.cls-3{fill:#588157;}</style></defs><path class="cls-1" d="M342.89,466.52a98.66,98.66,0,0,0,14-1.24A58.66,58.66,0,0,0,375.56,459c.94-.52,1.38-1,1-2.15s-.54-2.32-.81-3.55l2.6-.92c2-.69,2-.68,3.29.9q3.78,4.57,7.87,8.89a3.5,3.5,0,0,0,3.52,1.27c1.26-.39,1.41-1.81,1.51-3a17.93,17.93,0,0,0-.55-6.06A96.65,96.65,0,0,0,389,438.55c-.55-1.22-.84-1.27-1.71-.22a3.12,3.12,0,0,1-2.08,1.22,29.22,29.22,0,0,0-5.4,1.56c-1,.33-1.53,1.25-2.32,1.66a26,26,0,0,1-4.55,1.46c-.27-.79-.55-1.45-.73-2.14-.23-.95-.7-1.09-1.57-.74a77,77,0,0,1-10.46,3.43,38.57,38.57,0,0,1-15,1.05c-1.76-.26-1.75-.25-1.75-2,0-7,0-14-.23-21A1.68,1.68,0,0,0,342,421c-7-3-13.9-6.05-20.85-9.09a4.72,4.72,0,0,0-1.54-.61,1.83,1.83,0,0,1-1.52-.94,40.42,40.42,0,0,0-15.6-12.24c-8.61-3.78-17.39-4.44-26.18-.74-6.55,2.76-11.35,7.64-15.2,13.49a1.88,1.88,0,0,1-1.8,1c-3,0-5.92,0-8.88.06l-16.2.18c-.74,0-1.41,0-1.65,1a25.13,25.13,0,0,1-10,14.48c-1,.75-1,1,.12,1.69,3,1.82,6,3.69,9,5.45A2.26,2.26,0,0,1,233,437c.07,11.95.2,23.91.28,35.87a1.74,1.74,0,0,0,1,1.72q3,1.78,6,3.74c4.47,2.94,8.8,6.09,13.38,8.87a7,7,0,0,0,3.6,1c13.36.25,26.72.39,40.07.06a19.34,19.34,0,0,1,9.3,1.9c7.57,3.7,15.66,6.2,23.29,9.75a20.49,20.49,0,0,0,2.06.64,1.18,1.18,0,0,0,1.59-.6,9.42,9.42,0,0,1,1.65-2.18,34.48,34.48,0,0,0,4.53,2c2.34.67,3.2,2.24,3.37,4.45a5.6,5.6,0,0,0,.07.59,4.08,4.08,0,0,1-1.81,4.26,29.38,29.38,0,0,0-2.66,2.05c-1.25,1.13-.9,2.52.72,3a9.82,9.82,0,0,0,4.28.23c4.42-.75,7.48-3.42,9.77-7.09a40.93,40.93,0,0,0,4.33-11.12c.26-.95-.14-1.32-1.05-1.07a4.39,4.39,0,0,1-3.4-.58,16.44,16.44,0,0,0-5.67-2.18c-2.32-.28-4.05-1.72-6.24-2.52,1.1-1.41,2-2.59,1.53-4.54-.42-1.77,0-3.73,0-5.61C342.9,475.33,342.89,471,342.89,466.52ZM202.12,344.42a.61.61,0,0,0-.62.31.56.56,0,0,0,.14.75,6.2,6.2,0,0,0,.81.52,129.66,129.66,0,0,1,45.63,45.8,7,7,0,0,0,.57.91.54.54,0,0,0,.76.09.52.52,0,0,0,.22-.72c-.15-.28-.3-.57-.46-.84a131.43,131.43,0,0,0-46.33-46.44C202.6,344.66,202.35,344.54,202.12,344.42Zm80.52,24.34h0c0,.47,0,1-.08,1.43s.13.67.5.72.65-.24.71-.64a7.55,7.55,0,0,0,.05-.83q.69-10.54,1.37-21.07.65-9.93,1.27-19.87c0-.5.19-1.17-.59-1.18s-.58.64-.61,1.1Q284,348.59,282.64,368.76Zm15.53,13.77c0,.41,0,.77.48.88s.65-.19.77-.57c.08-.22.16-.45.23-.68a114.81,114.81,0,0,1,16.92-33.26c.25-.34.65-.73.15-1.13s-.85,0-1.15.41l-.35.49a114.52,114.52,0,0,0-14.64,27.1C299.74,378,299,380.27,298.17,382.53Zm32.47-6.77c.56-.14.69-.66.93-1.05a79.88,79.88,0,0,1,24.85-26c.23-.16.47-.3.69-.47a.58.58,0,0,0,.18-.84.59.59,0,0,0-.84-.16c-.25.13-.48.3-.71.45a81.08,81.08,0,0,0-25.25,26.47,3.59,3.59,0,0,0-.45.84C329.89,375.47,330.19,375.69,330.64,375.76Zm29.93,6c-.36-1-1-.45-1.53-.19A77.73,77.73,0,0,0,335.38,399c-.32.35-.94.74-.37,1.29s.92-.1,1.25-.45a76.56,76.56,0,0,1,8.22-7.68,77.78,77.78,0,0,1,15.15-9.55C360,382.45,360.49,382.35,360.57,381.76Zm-96-6.91-.36-.87-6.56-16.05c-1.17-2.84-2.35-5.67-3.51-8.51-.19-.45-.37-1-1-.74s-.32.8-.13,1.24l.17.45,9.84,24a7.76,7.76,0,0,0,.47,1,.51.51,0,0,0,.64.19A.64.64,0,0,0,264.57,374.85Zm-31.34,20.43c0-.58-.47-.74-.81-1a56.76,56.76,0,0,0-15.73-8c-1.18-.38-2.38-.69-3.56-1-.4-.11-.74-.06-.87.38s.14.66.52.78c.19.06.39.09.58.15a56.42,56.42,0,0,1,18.2,8.58,5,5,0,0,0,.79.53A.56.56,0,0,0,233.23,395.28Z" transform="translate(-201.41 -327.33)"/><path class="cls-2" d="M342.89,466.52c0,4.46,0,8.81,0,13.16,0,1.88-.41,3.84,0,5.61.46,1.95-.43,3.13-1.53,4.54,2.19.8,3.92,2.24,6.24,2.52a16.44,16.44,0,0,1,5.67,2.18,4.39,4.39,0,0,0,3.4.58c.91-.25,1.31.12,1.05,1.07a40.93,40.93,0,0,1-4.33,11.12c-2.29,3.67-5.35,6.34-9.77,7.09a9.82,9.82,0,0,1-4.28-.23c-1.62-.45-2-1.84-.72-3a29.38,29.38,0,0,1,2.66-2.05,4.08,4.08,0,0,0,1.81-4.26,5.6,5.6,0,0,1-.07-.59c-.17-2.21-1-3.78-3.37-4.45a34.48,34.48,0,0,1-4.53-2,9.42,9.42,0,0,0-1.65,2.18,1.18,1.18,0,0,1-1.59.6,20.49,20.49,0,0,1-2.06-.64c-7.63-3.55-15.72-6.05-23.29-9.75a19.34,19.34,0,0,0-9.3-1.9c-13.35.33-26.71.19-40.07-.06a7,7,0,0,1-3.6-1c-4.58-2.78-8.91-5.93-13.38-8.87q-3-2-6-3.74a1.74,1.74,0,0,1-1-1.72C233.15,461,233,449,233,437a2.26,2.26,0,0,0-1.25-2.27c-3-1.76-6-3.63-9-5.45-1.1-.67-1.13-.94-.12-1.69a25.13,25.13,0,0,0,10-14.48c.24-1,.91-1,1.65-1l16.2-.18c3,0,5.92-.09,8.88-.06a1.88,1.88,0,0,0,1.8-1c3.85-5.85,8.65-10.73,15.2-13.49,8.79-3.7,17.57-3,26.18.74a40.42,40.42,0,0,1,15.6,12.24,1.83,1.83,0,0,0,1.52.94,4.72,4.72,0,0,1,1.54.61c6.95,3,13.88,6.1,20.85,9.09a1.68,1.68,0,0,1,1.2,1.76c.21,7,.22,14,.23,21,0,1.79,0,1.78,1.75,2a38.57,38.57,0,0,0,15-1.05,77,77,0,0,0,10.46-3.43c.87-.35,1.34-.21,1.57.74.18.69.46,1.35.73,2.14a26,26,0,0,0,4.55-1.46c.79-.41,1.36-1.33,2.32-1.66a29.22,29.22,0,0,1,5.4-1.56,3.12,3.12,0,0,0,2.08-1.22c.87-1.05,1.16-1,1.71.22A96.65,96.65,0,0,1,394,454.39a17.93,17.93,0,0,1,.55,6.06c-.1,1.22-.25,2.64-1.51,3a3.5,3.5,0,0,1-3.52-1.27q-4.08-4.32-7.87-8.89c-1.32-1.58-1.31-1.59-3.29-.9l-2.6.92c.27,1.23.44,2.42.81,3.55s-.08,1.63-1,2.15a58.66,58.66,0,0,1-18.65,6.24A98.66,98.66,0,0,1,342.89,466.52Zm-21.18-47.87c-13.68,6-27.72,9.22-42.63,7.61a.59.59,0,0,0,0,.17c1.85,6.7,2.53,13.58,3.1,20.47a92.75,92.75,0,0,0,2.65,17.39c2.12,7.56,5.68,14.23,12,19.16a51,51,0,0,0,10.42,5.84c7.56,3.44,15.47,6,23,9.55a12.72,12.72,0,0,0,1.47.5.78.78,0,0,0,1-.36c2.52-3.65,5.54-6.93,8.16-10.51.26-.37.69-.67.67-1.23l-1.3-.63c-7-3.46-14-7.1-20.15-12C310,466.73,306,456.05,306,443.54c0-.48-.11-1.18.6-1.25s.68.63.81,1.11c.48,1.69.9,3.4,1.46,5.06,1.68,5,4.17,9.36,8.79,12.18s9.9,4,15.28,4.4a102.4,102.4,0,0,0,20.71-.5,59.17,59.17,0,0,0,20.76-6.25,1.39,1.39,0,0,0,.86-1.85,138.27,138.27,0,0,0-4.1-13.51,1.5,1.5,0,0,0-.27-.34c-1.17.43-2.29.87-3.42,1.26-6.57,2.26-13.26,4-20.29,3.41-8.9-.77-15.65-4.9-19.65-13.09a55.78,55.78,0,0,1-2.66-6.92A75.33,75.33,0,0,0,321.71,418.65ZM256.06,487c14.63.37,29.14.37,43.68.13,0-.14,0-.19,0-.2l-.81-.52a31.38,31.38,0,0,1-9.07-8.45c-4.64-6.52-6.78-13.94-7.9-21.74-.89-6.14-1.07-12.35-1.93-18.49a60,60,0,0,0-2.7-12.63,1.78,1.78,0,0,0-2-1.38c-4.76.07-9.52,0-14.28,0h-4.28C256.52,444.75,256.29,465.81,256.06,487Zm65.16-69.55c-5.65-10.11-13.65-17.13-24.82-20.08-9.19-2.42-17.86-1.17-25.56,4.7A37.79,37.79,0,0,0,259,417.36a24.27,24.27,0,0,0-1.6,4.86c.12.06.18.13.25.13l14.76.11a1.27,1.27,0,0,0,.68-.17c1.93-1.12,3.56-.92,4.54,1a3.39,3.39,0,0,0,3,1.85c1.31.16,2.62.31,3.94.35a78.4,78.4,0,0,0,21.13-2.5A80.35,80.35,0,0,0,321.22,417.44Zm-66.38,69.14c.21-20,.42-39.62.64-59.53a6.41,6.41,0,0,0-.38.54,54.4,54.4,0,0,1-9.26,14.06c-.73.83-1.29,1-2.3.39-2.69-1.72-5.44-3.34-8.18-5-.36-.22-.66-.61-1.15-.51a.58.58,0,0,0,0,.13q.15,18,.29,36a1.06,1.06,0,0,0,.62,1c5.09,2.94,9.81,6.46,14.71,9.68C251.39,484.43,253,485.42,254.84,486.58Zm-10.29-45.36c4.79-5.34,8.66-11.07,10.84-17.9l-21.66-9.52a27.12,27.12,0,0,1-10.12,14.62Zm63,8c-.07.11-.15.18-.14.24.08.46.17.93.26,1.39,1.54,8.55,5,16.07,11.83,21.74,6.55,5.44,14,9.36,21.59,13.06a2.38,2.38,0,0,0,.49.07c.13-6.4.25-12.76.38-19.19h-1.13a64.65,64.65,0,0,1-14.55-1.23c-8.83-1.88-15.19-6.64-18.21-15.38C308,449.67,308,449.35,307.53,449.21Zm34.39-26.44H324.67a109.42,109.42,0,0,0,3.76,10.44,21.07,21.07,0,0,0,7.66,9.15,20.3,20.3,0,0,0,6.11,2.76C342.17,437.55,342.24,430.13,341.92,422.77Zm50.45,39.4A151.83,151.83,0,0,0,386,440.58a31.39,31.39,0,0,0-6.47,2,2.14,2.14,0,0,0,.15.38,9.16,9.16,0,0,1,1.87,7.66,1.07,1.07,0,0,0,.27,1c2.78,3.37,5.63,6.66,8.65,9.8A1.87,1.87,0,0,0,392.37,462.17Zm-44.82,31.37c0,.46-.05.81-.1,1.16a8.5,8.5,0,0,1-3.06,5.9,1.38,1.38,0,0,0-.54,1.78c1.22,4.51.68,5.94-3.09,8.69a4.14,4.14,0,0,0-1.6,1.49,4.54,4.54,0,0,0,3.36.36,10.61,10.61,0,0,0,5.13-3.18c3.66-3.76,5.11-8.55,6.3-13.51A31,31,0,0,0,347.55,493.54Zm-88-80.18H236.68c6.33,3.38,13,5.9,19.44,8.93A36.05,36.05,0,0,1,259.59,413.36Zm79.52,8.08.05-.28-19-8.3a56.39,56.39,0,0,1,4.06,8.58Zm-3.3,75.37c2.31,1,4.49,2,6.65,3a1,1,0,0,0,1.26-.21,8,8,0,0,0,2.55-5.38.8.8,0,0,0-.51-.94c-1.69-.79-3.35-1.63-5.09-2.49Zm39.64-44.67c1.39-.48,2.72-1,4.08-1.4a1.23,1.23,0,0,0,1-1.27,8.52,8.52,0,0,0-1.42-5.21.67.67,0,0,0-.88-.36c-1.62.52-3.25,1-4.91,1.5Z" transform="translate(-201.41 -327.33)"/><path class="cls-2" d="M202.12,344.42c.23.12.48.24.72.38a131.43,131.43,0,0,1,46.33,46.44c.16.27.31.56.46.84a.52.52,0,0,1-.22.72.54.54,0,0,1-.76-.09,7,7,0,0,1-.57-.91A129.66,129.66,0,0,0,202.45,346a6.2,6.2,0,0,1-.81-.52.56.56,0,0,1-.14-.75A.61.61,0,0,1,202.12,344.42Z" transform="translate(-201.41 -327.33)"/><path class="cls-2" d="M282.64,368.76q1.31-20.16,2.63-40.33c0-.46-.07-1.1.61-1.1s.62.68.59,1.18q-.63,9.93-1.27,19.87-.69,10.53-1.37,21.07a7.55,7.55,0,0,1-.05.83c-.06.4-.28.7-.71.64s-.52-.35-.5-.72.05-1,.08-1.43Z" transform="translate(-201.41 -327.33)"/><path class="cls-2" d="M298.17,382.53c.8-2.26,1.57-4.52,2.41-6.76a114.52,114.52,0,0,1,14.64-27.1l.35-.49c.3-.39.61-.85,1.15-.41s.1.79-.15,1.13a114.81,114.81,0,0,0-16.92,33.26c-.07.23-.15.46-.23.68-.12.38-.34.68-.77.57S298.15,382.94,298.17,382.53Z" transform="translate(-201.41 -327.33)"/><path class="cls-2" d="M330.64,375.76c-.45-.07-.75-.29-.6-.79a3.59,3.59,0,0,1,.45-.84,81.08,81.08,0,0,1,25.25-26.47c.23-.15.46-.32.71-.45a.59.59,0,0,1,.84.16.58.58,0,0,1-.18.84c-.22.17-.46.31-.69.47a79.88,79.88,0,0,0-24.85,26C331.33,375.1,331.2,375.62,330.64,375.76Z" transform="translate(-201.41 -327.33)"/><path class="cls-2" d="M360.57,381.76c-.08.59-.55.69-.94.87a77.78,77.78,0,0,0-15.15,9.55,76.56,76.56,0,0,0-8.22,7.68c-.33.35-.67,1-1.25.45s.05-.94.37-1.29A77.73,77.73,0,0,1,359,381.57C359.56,381.31,360.21,380.8,360.57,381.76Z" transform="translate(-201.41 -327.33)"/><path class="cls-2" d="M264.57,374.85a.64.64,0,0,1-.42.67.51.51,0,0,1-.64-.19,7.76,7.76,0,0,1-.47-1l-9.84-24-.17-.45c-.19-.44-.48-1,.13-1.24s.79.29,1,.74c1.16,2.84,2.34,5.67,3.51,8.51L264.21,374Z" transform="translate(-201.41 -327.33)"/><path class="cls-2" d="M233.23,395.28a.56.56,0,0,1-.88.43,5,5,0,0,1-.79-.53,56.42,56.42,0,0,0-18.2-8.58c-.19-.06-.39-.09-.58-.15-.38-.12-.65-.34-.52-.78s.47-.49.87-.38c1.18.34,2.38.65,3.56,1a56.76,56.76,0,0,1,15.73,8C232.76,394.54,233.24,394.7,233.23,395.28Z" transform="translate(-201.41 -327.33)"/><path class="cls-1" d="M321.71,418.65a75.33,75.33,0,0,1,3.15,8.6,55.78,55.78,0,0,0,2.66,6.92c4,8.19,10.75,12.32,19.65,13.09,7,.61,13.72-1.15,20.29-3.41,1.13-.39,2.25-.83,3.42-1.26a1.5,1.5,0,0,1,.27.34,138.27,138.27,0,0,1,4.1,13.51,1.39,1.39,0,0,1-.86,1.85,59.17,59.17,0,0,1-20.76,6.25,102.4,102.4,0,0,1-20.71.5c-5.38-.43-10.6-1.54-15.28-4.4s-7.11-7.23-8.79-12.18c-.56-1.66-1-3.37-1.46-5.06-.13-.48-.08-1.18-.81-1.11s-.59.77-.6,1.25c0,12.51,4,23.19,14.1,31.11,6.2,4.86,13.12,8.5,20.15,12l1.3.63c0,.56-.41.86-.67,1.23-2.62,3.58-5.64,6.86-8.16,10.51a.78.78,0,0,1-1,.36,12.72,12.72,0,0,1-1.47-.5c-7.52-3.52-15.43-6.11-23-9.55a51,51,0,0,1-10.42-5.84c-6.32-4.93-9.88-11.6-12-19.16a92.75,92.75,0,0,1-2.65-17.39c-.57-6.89-1.25-13.77-3.1-20.47a.59.59,0,0,1,0-.17C294,427.87,308,424.64,321.71,418.65Z" transform="translate(-201.41 -327.33)"/><path class="cls-3" d="M256.06,487c.23-21.18.46-42.24.69-63.29H261c4.76,0,9.52.08,14.28,0a1.78,1.78,0,0,1,2,1.38,60,60,0,0,1,2.7,12.63c.86,6.14,1,12.35,1.93,18.49,1.12,7.8,3.26,15.22,7.9,21.74a31.38,31.38,0,0,0,9.07,8.45l.81.52s0,.06,0,.2C285.2,487.36,270.69,487.36,256.06,487Z" transform="translate(-201.41 -327.33)"/><path class="cls-1" d="M321.22,417.44A80.35,80.35,0,0,1,305.75,423a78.4,78.4,0,0,1-21.13,2.5c-1.32,0-2.63-.19-3.94-.35a3.39,3.39,0,0,1-3-1.85c-1-1.89-2.61-2.09-4.54-1a1.27,1.27,0,0,1-.68.17l-14.76-.11c-.07,0-.13-.07-.25-.13a24.27,24.27,0,0,1,1.6-4.86,37.79,37.79,0,0,1,11.81-15.3c7.7-5.87,16.37-7.12,25.56-4.7C307.57,400.31,315.57,407.33,321.22,417.44Z" transform="translate(-201.41 -327.33)"/><path class="cls-3" d="M254.84,486.58c-1.83-1.16-3.45-2.15-5.05-3.2-4.9-3.22-9.62-6.74-14.71-9.68a1.06,1.06,0,0,1-.62-1q-.14-18-.29-36a.58.58,0,0,1,0-.13c.49-.1.79.29,1.15.51,2.74,1.64,5.49,3.26,8.18,5,1,.65,1.57.44,2.3-.39a54.4,54.4,0,0,0,9.26-14.06,6.41,6.41,0,0,1,.38-.54C255.26,447,255.05,466.62,254.84,486.58Z" transform="translate(-201.41 -327.33)"/><path class="cls-3" d="M244.55,441.22l-20.94-12.8a27.12,27.12,0,0,0,10.12-14.62l21.66,9.52C253.21,430.15,249.34,435.88,244.55,441.22Z" transform="translate(-201.41 -327.33)"/><path class="cls-3" d="M307.53,449.21c.42.14.43.46.52.7,3,8.74,9.38,13.5,18.21,15.38a64.65,64.65,0,0,0,14.55,1.23h1.13c-.13,6.43-.25,12.79-.38,19.19a2.38,2.38,0,0,1-.49-.07c-7.59-3.7-15-7.62-21.59-13.06-6.83-5.67-10.29-13.19-11.83-21.74-.09-.46-.18-.93-.26-1.39C307.38,449.39,307.46,449.32,307.53,449.21Z" transform="translate(-201.41 -327.33)"/><path class="cls-3" d="M341.92,422.77c.32,7.36.25,14.78.28,22.35a20.3,20.3,0,0,1-6.11-2.76,21.07,21.07,0,0,1-7.66-9.15,109.42,109.42,0,0,1-3.76-10.44Z" transform="translate(-201.41 -327.33)"/><path class="cls-1" d="M392.37,462.17a1.87,1.87,0,0,1-1.9-.77c-3-3.14-5.87-6.43-8.65-9.8a1.07,1.07,0,0,1-.27-1,9.16,9.16,0,0,0-1.87-7.66,2.14,2.14,0,0,1-.15-.38,31.39,31.39,0,0,1,6.47-2A151.83,151.83,0,0,1,392.37,462.17Z" transform="translate(-201.41 -327.33)"/><path class="cls-1" d="M347.55,493.54a31,31,0,0,1,6.4,2.69c-1.19,5-2.64,9.75-6.3,13.51a10.61,10.61,0,0,1-5.13,3.18,4.54,4.54,0,0,1-3.36-.36,4.14,4.14,0,0,1,1.6-1.49c3.77-2.75,4.31-4.18,3.09-8.69a1.38,1.38,0,0,1,.54-1.78,8.5,8.5,0,0,0,3.06-5.9C347.5,494.35,347.51,494,347.55,493.54Z" transform="translate(-201.41 -327.33)"/><path class="cls-1" d="M259.59,413.36a36.05,36.05,0,0,0-3.47,8.93c-6.48-3-13.11-5.55-19.44-8.93Z" transform="translate(-201.41 -327.33)"/><path class="cls-1" d="M339.11,421.44h-14.9a56.39,56.39,0,0,0-4.06-8.58l19,8.3Z" transform="translate(-201.41 -327.33)"/><path class="cls-1" d="M335.81,496.81l4.86-6c1.74.86,3.4,1.7,5.09,2.49a.8.8,0,0,1,.51.94,8,8,0,0,1-2.55,5.38,1,1,0,0,1-1.26.21C340.3,498.81,338.12,497.85,335.81,496.81Z" transform="translate(-201.41 -327.33)"/><path class="cls-1" d="M375.45,452.14l-2.13-6.74c1.66-.51,3.29-1,4.91-1.5a.67.67,0,0,1,.88.36,8.52,8.52,0,0,1,1.42,5.21,1.23,1.23,0,0,1-1,1.27C378.17,451.14,376.84,451.66,375.45,452.14Z" transform="translate(-201.41 -327.33)"/></svg>